<?xml version="1.0" standalone="no"?>
<!DOCTYPE svg PUBLIC "-//W3C//DTD SVG 20010904//EN"
 "http://www.w3.org/TR/2001/REC-SVG-20010904/DTD/svg10.dtd">
<svg version="1.0" xmlns="http://www.w3.org/2000/svg"
 width="698.000000pt" height="698.000000pt" viewBox="0 0 698.000000 698.000000"
 preserveAspectRatio="xMidYMid meet">
<metadata>
Created by potrace 1.14, written by Peter Selinger 2001-2017
</metadata>
<g transform="translate(0.000000,698.000000) scale(0.100000,-0.100000)"
fill="#000000" stroke="none">
<path d="M3398 6975 c-1 -1 -43 -6 -91 -10 -48 -3 -96 -8 -106 -10 -10 -2 -42
-6 -72 -10 -126 -15 -359 -68 -491 -113 -113 -39 -340 -141 -355 -160 -9 -11
-10 -19 -2 -28 26 -32 -29 -87 -93 -93 -5 -1 -8 -8 -8 -16 0 -10 -10 -15 -32
-15 -29 0 -46 -14 -136 -106 -56 -58 -137 -147 -180 -197 -42 -51 -84 -99 -92
-108 -8 -8 -52 -56 -97 -105 -44 -49 -101 -110 -125 -135 -23 -26 -92 -100
-153 -165 -60 -65 -117 -125 -125 -134 -9 -9 -39 -44 -67 -78 -59 -71 -97
-108 -209 -207 -114 -101 -161 -151 -215 -228 -42 -61 -68 -121 -57 -133 11
-10 234 88 313 137 22 14 85 49 140 78 110 57 173 102 285 201 110 97 139 129
146 158 9 35 23 52 53 63 22 9 248 61 314 73 69 12 263 19 527 19 372 0 457
-8 488 -46 11 -13 8 -19 -20 -39 -18 -14 -62 -39 -98 -58 -96 -49 -161 -93
-269 -178 -53 -42 -98 -80 -101 -84 -3 -4 -26 -16 -51 -27 -59 -26 -151 -102
-323 -267 -6 -5 -45 -33 -88 -62 -90 -61 -299 -265 -508 -497 -155 -172 -324
-380 -393 -483 -62 -93 -98 -167 -156 -318 -60 -159 -89 -217 -148 -297 -25
-34 -55 -82 -68 -107 -47 -94 -145 -416 -145 -478 0 -13 -7 -36 -15 -52 -8
-15 -17 -54 -21 -87 -3 -32 -15 -78 -26 -103 -15 -33 -21 -73 -24 -150 -2 -58
-6 -115 -9 -127 -3 -12 2 -28 10 -37 14 -13 14 -21 -2 -76 -14 -53 -15 -66 -3
-98 7 -20 13 -68 12 -107 -1 -46 4 -75 13 -85 19 -21 20 -35 12 -115 -6 -54
-4 -79 7 -107 9 -20 24 -74 35 -120 25 -106 74 -266 90 -296 14 -25 31 -21 31
9 0 10 -12 53 -26 94 -14 42 -24 78 -22 81 11 10 39 -10 53 -39 9 -18 37 -81
62 -142 53 -125 126 -268 139 -272 5 -2 25 11 44 27 19 16 38 30 41 30 18 0
16 -17 -3 -38 l-23 -24 45 5 c48 5 80 -5 80 -27 0 -14 27 -31 43 -27 5 1 38
-26 75 -60 60 -56 128 -98 160 -99 6 0 12 9 12 21 0 11 25 46 55 78 30 32 55
62 54 67 0 5 -22 27 -47 49 -69 59 -165 169 -176 202 -5 15 -15 32 -23 36 -7
5 -11 13 -8 18 10 14 46 -16 75 -62 34 -55 155 -132 183 -117 27 14 66 1 117
-40 25 -20 47 -39 50 -43 8 -9 166 -99 176 -99 19 -1 56 -41 51 -55 -5 -12
-13 -12 -59 2 -72 21 -116 45 -162 87 -21 20 -42 33 -47 30 -17 -10 -9 -35 16
-44 13 -5 34 -21 47 -35 12 -14 29 -25 39 -25 10 0 20 -9 24 -19 3 -11 16 -23
28 -27 12 -3 30 -15 40 -25 10 -11 30 -19 45 -19 15 0 49 -15 77 -34 27 -19
66 -36 86 -39 19 -2 45 -10 57 -16 13 -7 37 -9 57 -5 41 7 46 -7 13 -30 l-22
-16 22 0 c13 0 34 -7 48 -16 41 -27 99 -29 139 -4 19 12 39 19 44 15 16 -9 1
-35 -20 -35 -21 0 -27 -29 -6 -31 19 -1 70 -9 93 -14 37 -8 73 -43 67 -65 -7
-27 -52 -38 -65 -16 -5 9 -14 16 -20 16 -6 0 -26 14 -45 31 -19 17 -41 28 -48
25 -63 -24 -98 -29 -117 -17 -31 19 -33 5 -3 -23 29 -27 23 -35 -25 -34 -42 1
-51 -2 -46 -11 9 -14 -16 -19 -43 -9 -32 12 -38 3 -16 -22 10 -11 36 -23 58
-27 l40 -6 -52 -19 c-29 -11 -50 -25 -48 -31 4 -14 59 -34 118 -42 75 -10 299
-67 317 -81 15 -12 13 -14 -18 -20 l-35 -8 30 -8 c17 -5 82 -11 145 -13 105
-5 112 -4 75 8 l-40 13 35 6 c49 9 215 2 236 -10 15 -8 15 -9 -1 -15 -31 -13
-4 -27 49 -26 29 1 62 -4 73 -11 18 -12 28 -10 72 13 56 30 121 36 121 13 0
-8 -6 -17 -12 -20 -29 -14 207 6 292 24 25 5 56 12 70 14 14 2 45 7 70 11 59
9 243 57 350 90 299 94 829 349 1064 513 61 42 120 82 131 89 345 203 980 625
1031 686 24 29 25 32 9 43 -22 16 -13 41 19 55 13 6 27 22 30 35 4 13 43 62
89 110 45 47 84 90 85 96 14 34 -324 -125 -348 -165 -8 -14 -39 -50 -67 -80
-29 -31 -53 -60 -53 -65 0 -6 -16 -20 -35 -32 -19 -12 -78 -57 -131 -99 -52
-43 -139 -101 -192 -129 -130 -68 -324 -134 -462 -158 -14 -3 -51 -9 -83 -15
-31 -5 -92 -22 -135 -36 -61 -20 -100 -26 -187 -28 -82 -2 -125 -8 -169 -24
-80 -29 -107 -27 -144 9 -19 18 -43 30 -59 31 -16 0 -35 2 -43 4 -9 1 -61 6
-115 9 -55 4 -111 9 -125 11 -14 2 -47 6 -75 10 -27 3 -117 19 -200 35 -82 16
-166 32 -185 35 -154 27 -547 132 -675 182 -247 94 -527 290 -738 513 -163
173 -263 353 -350 635 -46 148 -72 274 -92 450 -3 28 -7 64 -9 81 -21 166 -28
561 -13 687 16 130 87 389 121 438 51 74 238 238 370 324 45 29 144 85 221
125 153 80 264 141 364 203 62 37 221 117 287 144 47 19 291 118 389 157 50
21 99 41 110 46 63 30 430 145 582 183 170 43 195 48 288 63 22 3 42 7 45 9
24 15 276 23 395 13 92 -7 136 9 325 116 58 32 128 69 155 82 76 34 375 334
375 376 0 20 -21 33 -94 58 -46 16 -51 20 -49 46 1 15 -3 34 -9 41 -12 14 -48
18 -48 5 0 -5 -12 -15 -27 -22 -28 -12 -28 -12 -5 -21 12 -5 22 -10 22 -13 0
-8 -82 15 -106 30 -17 12 -24 13 -24 4 0 -8 -9 -10 -27 -6 -16 4 -41 8 -56 9
-22 2 -33 10 -46 35 -17 33 -17 33 -36 12 -24 -27 -53 -26 -64 4 -8 19 -19 25
-60 30 -56 7 -90 38 -70 63 9 10 17 10 41 -3 31 -16 131 -27 123 -14 -3 4 -19
11 -37 15 -18 4 -35 9 -38 9 -3 1 -25 6 -50 10 -25 5 -54 10 -64 12 -11 2 -24
8 -29 13 -14 14 4 19 75 25 32 2 64 11 72 19 8 8 41 17 73 21 76 9 101 13 206
37 112 26 215 27 402 3 17 -2 77 -7 135 -10 102 -6 107 -5 180 26 161 67 180
81 144 107 -19 14 -132 42 -234 58 -25 4 -61 11 -80 15 -265 67 -515 121 -720
156 -14 2 -34 6 -46 9 -12 3 -39 7 -60 11 -94 14 -226 44 -253 59 -17 8 -45
15 -64 15 -18 0 -69 11 -113 24 -44 13 -160 38 -259 55 -99 17 -191 33 -205
36 -29 5 -235 32 -300 39 -25 3 -72 8 -105 11 -33 4 -71 9 -85 12 -29 5 -436
13 -442 8z m317 -220 c122 -12 154 -15 210 -20 53 -5 119 -13 245 -31 19 -3
51 -7 70 -10 54 -7 113 -16 130 -19 8 -2 38 -6 65 -9 91 -12 294 -46 312 -53
10 -4 28 -17 40 -30 15 -16 30 -22 45 -19 13 3 37 8 54 11 27 6 33 4 39 -16
l7 -22 19 24 c10 13 19 19 19 13 0 -28 163 -76 305 -90 33 -3 62 -7 63 -9 9
-8 -56 -32 -237 -88 -348 -107 -389 -115 -442 -86 -23 12 -96 12 -104 0 -3 -5
4 -12 15 -16 22 -7 45 -41 33 -48 -5 -3 -39 1 -78 9 -38 7 -90 16 -115 20 -79
11 -163 73 -128 95 20 13 25 11 65 -26 32 -30 43 -35 74 -31 23 3 45 -1 58
-11 23 -16 57 -10 46 8 -8 11 -25 19 -127 55 -68 24 -98 32 -130 33 -12 1 -18
9 -18 24 0 28 -7 37 -25 30 -8 -2 -11 -11 -8 -19 3 -8 -3 -24 -12 -34 -18 -19
-17 -20 8 -20 30 0 36 -14 11 -24 -21 -8 -67 -7 -80 2 -6 4 -13 15 -17 25 -8
22 -33 22 -45 1 -5 -9 -15 -14 -21 -10 -8 5 -5 17 11 38 20 29 20 31 4 44 -25
18 -12 33 25 27 43 -6 35 16 -14 40 -25 13 -70 21 -132 24 -83 5 -99 3 -135
-16 -47 -24 -83 -27 -99 -7 -7 9 -32 13 -69 13 -32 0 -68 6 -82 14 -25 14 -25
14 18 17 28 2 42 8 42 18 0 19 -35 18 -94 -2 -53 -18 -67 -13 -42 15 16 18 16
19 -16 23 -18 3 -66 18 -107 33 -83 31 -159 31 -189 1 -16 -16 -16 -18 1 -31
18 -13 18 -13 0 -18 -49 -14 -123 0 -123 23 0 5 7 16 16 24 14 15 11 16 -35
16 -39 0 -56 -5 -77 -25 -15 -14 -33 -25 -41 -25 -7 0 -19 11 -25 25 -10 21
-18 25 -57 25 -41 -1 -44 -2 -28 -14 26 -20 5 -32 -78 -47 -39 -6 -85 -18
-104 -25 -43 -18 -57 -9 -35 24 22 34 50 58 97 83 63 33 151 45 397 54 144 5
168 8 215 23 29 10 306 8 410 -3z m-398 -119 c11 -11 -10 -26 -36 -26 -35 0
-62 26 -34 32 22 5 63 1 70 -6z m49 -41 c-11 -8 -25 -15 -30 -16 -56 -5 -66
-5 -59 2 9 8 70 27 93 28 11 0 10 -3 -4 -14z m554 -111 c0 -18 -21 -23 -47
-11 -34 15 -28 28 12 25 19 -1 35 -7 35 -14z m1500 -16 c0 -18 -2 -20 -9 -8
-6 8 -7 18 -5 22 9 14 14 9 14 -14z m-2565 -28 c0 -29 -46 -41 -140 -37 -85 4
-155 21 -142 33 3 3 56 8 118 10 61 2 114 5 116 7 10 11 48 0 48 -13z m723 -7
c-10 -2 -26 -2 -35 0 -10 3 -2 5 17 5 19 0 27 -2 18 -5z m-1003 -53 c-3 -5
-10 -10 -16 -10 -5 0 -9 5 -9 10 0 6 7 10 16 10 8 0 12 -4 9 -10z m120 -20 c8
-13 -20 -24 -41 -16 -20 8 -9 26 16 26 10 0 22 -5 25 -10z m-260 -32 c8 -7
-72 -27 -93 -23 -9 2 -20 4 -24 4 -15 2 -8 20 10 23 25 5 101 2 107 -4z m1835
-55 c0 -9 -32 -43 -41 -43 -4 0 -6 8 -4 18 2 9 4 20 4 25 1 9 41 10 41 0z
m752 -44 c-30 -12 -22 -24 34 -48 54 -24 51 -46 -5 -37 -56 9 -141 36 -141 45
0 4 18 14 41 21 22 8 42 17 45 22 3 4 15 8 27 7 22 0 22 0 -1 -10z m-612 -10
c0 -4 -9 -7 -19 -6 -11 0 -18 4 -16 7 6 9 35 8 35 -1z m-1045 -738 c6 -11
-170 -101 -196 -101 -18 0 -33 40 -20 53 4 4 32 12 62 17 42 7 95 22 146 39 1
1 4 -3 8 -8z m-238 -98 c5 -13 -51 -49 -89 -58 -20 -5 -28 -3 -28 6 0 23 14
37 50 52 37 16 62 16 67 0z m-1885 -2453 c6 0 17 8 24 17 16 23 26 13 26 -29
1 -73 -1 -81 -22 -75 -18 5 -20 0 -20 -46 0 -29 -4 -68 -9 -88 -12 -52 0 -67
39 -52 28 10 30 9 32 -10 4 -58 -1 -109 -12 -123 -17 -19 -7 -184 14 -241 10
-30 12 -51 6 -74 -7 -23 -6 -35 5 -46 8 -8 15 -21 15 -28 0 -8 9 -29 20 -47
10 -18 31 -69 46 -113 36 -109 83 -205 147 -300 29 -44 70 -108 90 -142 44
-72 235 -250 310 -288 32 -16 34 -7 6 29 -12 15 -19 29 -17 31 7 8 121 -55
143 -79 11 -12 46 -35 77 -49 31 -15 60 -32 63 -37 11 -17 -22 -11 -79 15
-102 46 -100 26 2 -33 184 -107 214 -122 352 -177 113 -46 246 -79 255 -65 3
5 -3 11 -12 14 -31 12 4 28 72 34 51 3 69 1 78 -10 15 -19 319 -95 452 -113
77 -10 94 -16 89 -30 -4 -8 3 -15 18 -17 36 -6 146 17 165 34 30 26 61 31 248
33 99 2 204 4 233 4 40 1 57 6 74 23 22 22 30 23 233 24 249 2 269 4 426 45
66 17 130 32 142 35 48 8 339 86 445 118 61 19 112 31 112 27 0 -12 -372 -190
-600 -288 -19 -8 -44 -19 -55 -24 -37 -16 -331 -109 -406 -128 -41 -10 -101
-21 -134 -25 -33 -3 -96 -10 -140 -16 -196 -26 -349 -31 -490 -16 -120 12
-144 11 -158 -9 -18 -24 -81 -13 -140 25 -28 17 -48 25 -54 19 -27 -27 -113
-6 -141 33 -19 27 -30 22 -47 -20 -14 -31 -18 -34 -26 -20 -5 10 -29 22 -52
28 -23 6 -55 17 -72 24 -16 8 -57 19 -90 25 -57 11 -92 29 -70 37 6 3 17 9 25
14 46 29 -78 29 -144 0 -35 -16 -58 -20 -83 -15 -34 6 -35 8 -30 40 3 19 3 36
-1 39 -4 2 -34 6 -67 10 -39 3 -53 2 -40 -3 18 -8 17 -10 -13 -21 -27 -10 -30
-15 -21 -26 25 -30 -2 -25 -33 6 -17 18 -45 37 -60 42 -27 10 -28 11 -12 29
15 17 14 19 -22 34 -22 9 -51 14 -65 11 -19 -3 -32 1 -44 14 -24 27 -33 25
-27 -5 2 -14 0 -25 -5 -25 -14 0 -47 38 -49 57 -3 21 -23 39 -53 48 -20 6 -23
4 -19 -12 5 -18 2 -19 -43 -9 -26 6 -51 14 -55 18 -7 8 17 49 48 82 18 19 17
20 -10 31 -33 14 -88 13 -104 -3 -15 -15 -2 -44 19 -40 12 2 19 -5 21 -21 5
-36 -12 -47 -37 -22 -12 12 -27 21 -35 21 -7 0 -21 12 -31 26 -9 14 -31 32
-49 39 -37 16 -63 50 -71 93 -6 34 18 65 29 37 6 -16 41 -21 50 -6 3 5 -11 20
-32 35 -43 30 -91 79 -117 119 -11 17 -26 27 -41 27 -18 0 -27 9 -38 35 -8 19
-22 35 -30 35 -17 0 -52 47 -42 57 3 3 15 -2 26 -12 17 -15 20 -16 20 -3 0 9
-7 21 -16 29 -8 7 -24 29 -34 48 -19 35 -19 35 -20 9 0 -15 -7 -34 -16 -42
-14 -15 -14 -18 5 -41 11 -14 22 -39 26 -55 4 -16 15 -32 25 -35 33 -10 158
-155 134 -155 -19 0 -184 153 -184 171 0 5 -22 34 -50 64 -53 59 -59 72 -35
81 8 4 15 16 15 28 0 39 21 49 48 23 l24 -22 -20 50 c-67 167 -129 252 -140
193 -2 -9 6 -18 18 -21 23 -6 27 -22 6 -30 -17 -7 -45 22 -51 51 -2 11 3 28
10 39 20 26 19 55 -2 51 -13 -2 -18 4 -18 19 0 12 -9 29 -21 37 -15 11 -20 23
-17 43 2 15 -11 82 -30 148 -19 66 -38 147 -41 180 -4 33 -9 72 -12 86 -9 48
-12 363 -3 417 4 30 13 60 20 68 10 12 14 11 26 -6 8 -11 19 -20 25 -20z m159
-1163 c-16 -16 -26 0 -10 19 9 11 15 12 17 4 2 -6 -1 -17 -7 -23z m929 -698
c0 -11 -4 -17 -10 -14 -5 3 -10 13 -10 21 0 8 5 14 10 14 6 0 10 -9 10 -21z
m105 -40 c16 -16 -20 -10 -41 7 -18 14 -18 15 6 8 14 -3 29 -10 35 -15z m75
-45 c0 -2 -9 -4 -21 -4 -11 0 -18 4 -14 10 5 8 35 3 35 -6z m77 -21 c5 -13
-25 -26 -38 -17 -6 3 -5 11 2 20 13 16 31 14 36 -3z m101 -30 c-10 -2 -26 -2
-35 0 -10 3 -2 5 17 5 19 0 27 -2 18 -5z m1645 0 c-7 -2 -19 -2 -25 0 -7 3 -2
5 12 5 14 0 19 -2 13 -5z m-323 -51 c0 -5 -6 -9 -12 -10 -7 0 -35 -3 -62 -5
-54 -5 -94 2 -76 13 17 10 150 12 150 2z m-1975 -225 c26 -20 11 -36 -28 -30
-42 6 -63 23 -45 34 20 13 52 11 73 -4z m163 -48 c27 -10 29 -25 4 -31 -26 -7
-59 8 -72 32 -10 19 -9 20 17 14 15 -4 38 -11 51 -15z m422 -279 l25 -20 -41
0 c-27 0 -44 5 -47 14 -12 31 26 35 63 6z m130 -16 c0 -2 -9 -4 -21 -4 -11 0
-18 4 -14 10 5 8 35 3 35 -6z m-417 -83 c13 -5 39 -12 58 -15 95 -16 146 -32
135 -43 -20 -21 -218 10 -253 39 -32 26 9 38 60 19z m317 -133 c0 -4 -7 -8
-15 -8 -8 0 -15 4 -15 8 0 5 7 9 15 9 8 0 15 -4 15 -9z"/>
<path d="M3963 6576 c5 -14 66 -11 81 4 8 8 -1 11 -37 9 -28 -2 -46 -7 -44
-13z"/>
<path d="M4148 6543 c6 -2 18 -2 25 0 6 3 1 5 -13 5 -14 0 -19 -2 -12 -5z"/>
<path d="M4561 6421 c-8 -5 -10 -14 -7 -20 9 -13 33 -15 40 -2 9 14 -18 31
-33 22z"/>
<path d="M4750 6380 c0 -5 4 -10 9 -10 6 0 13 5 16 10 3 6 -1 10 -9 10 -9 0
-16 -4 -16 -10z"/>
<path d="M1850 1192 c0 -5 7 -16 16 -23 14 -12 16 -11 13 5 -4 20 -29 35 -29
18z"/>
<path d="M2048 1033 c-24 -6 -23 -33 1 -33 23 0 38 18 25 29 -5 4 -17 6 -26 4z"/>
<path d="M2265 990 c-3 -5 1 -10 9 -10 9 0 16 5 16 10 0 6 -4 10 -9 10 -6 0
-13 -4 -16 -10z"/>
<path d="M2393 933 c9 -2 23 -2 30 0 6 3 -1 5 -18 5 -16 0 -22 -2 -12 -5z"/>
<path d="M3035 719 c-3 -3 7 -11 21 -18 18 -8 31 -8 45 0 12 6 18 14 14 17 -9
9 -75 10 -80 1z"/>
<path d="M4270 4443 c-50 -9 -217 -55 -289 -80 -170 -58 -293 -150 -477 -358
-130 -148 -166 -208 -169 -282 -3 -50 -4 -52 -257 -311 -98 -100 -176 -187
-173 -191 2 -5 24 -4 47 1 58 14 83 15 83 3 4 -51 19 -77 53 -91 26 -10 43
-27 58 -57 29 -57 49 -55 49 5 1 26 4 50 8 54 4 4 20 -5 35 -19 28 -27 71 -37
73 -17 1 6 3 15 4 20 1 6 3 14 4 19 0 4 17 28 36 52 19 24 35 50 35 57 0 6 6
12 13 13 6 1 21 2 32 3 14 1 21 12 27 40 13 63 41 86 53 44 4 -13 20 -50 35
-83 29 -60 58 -93 138 -154 23 -18 42 -40 42 -50 0 -9 -26 -48 -57 -85 -91
-107 -92 -110 -63 -141 13 -14 65 -53 115 -87 49 -34 118 -83 153 -110 34 -27
73 -54 87 -60 30 -14 32 -24 5 -33 -22 -7 -55 8 -63 29 -11 27 -112 71 -208
90 -17 4 -31 16 -39 35 -13 31 -111 131 -129 131 -6 0 -11 -11 -11 -24 0 -16
-7 -27 -20 -31 -45 -14 -16 -68 46 -84 23 -6 47 -18 54 -26 7 -8 17 -15 23
-15 5 0 33 -18 62 -40 37 -28 64 -41 94 -44 28 -3 52 -13 70 -30 14 -14 35
-27 46 -29 29 -4 46 -17 39 -28 -3 -5 -26 -19 -51 -31 -52 -25 -71 -55 -53
-87 6 -12 39 -42 73 -67 34 -24 76 -61 93 -81 26 -30 37 -35 71 -35 47 1 104
22 149 57 18 14 37 25 43 25 5 0 25 14 43 31 37 35 194 139 280 187 242 134
804 520 956 657 55 50 70 83 30 68 -27 -9 -85 -9 -113 1 -15 5 -32 -4 -69 -39
-51 -48 -116 -86 -177 -103 -28 -7 -44 -6 -68 5 -30 15 -33 14 -69 -11 -21
-14 -46 -26 -56 -26 -28 0 -97 -42 -92 -56 3 -7 -12 -31 -32 -54 -31 -37 -37
-40 -42 -24 -4 10 -4 33 1 51 6 31 4 37 -13 34 -5 0 -8 4 -8 9 0 6 13 10 29
10 25 0 31 5 36 31 8 34 42 62 200 164 94 61 115 72 115 60 0 -13 -34 -71 -52
-92 -13 -14 -18 -28 -13 -42 7 -22 20 -27 29 -12 3 4 17 6 31 3 63 -12 124 55
110 119 -7 29 -8 30 -26 13 -18 -16 -49 -13 -49 5 0 5 11 18 25 29 14 11 25
24 24 29 -1 4 1 16 5 26 5 9 6 23 3 30 -5 14 -208 174 -348 275 -48 34 -127
98 -175 143 -49 45 -98 85 -110 89 -12 5 -43 45 -70 90 -68 114 -66 110 -98
160 -16 25 -45 78 -63 119 -37 81 -118 212 -130 210 -5 -1 -19 -4 -33 -6z
m890 -1428 c0 -17 -46 -42 -56 -32 -7 7 35 46 49 47 4 0 7 -7 7 -15z m-362
-66 c-4 -30 -33 -48 -50 -31 -11 11 -9 17 11 33 30 25 43 24 39 -2z m286 2 c3
-5 0 -13 -7 -19 -15 -13 -42 1 -33 17 9 13 33 15 40 2z m-100 -27 c17 -7 21
-31 8 -52 -5 -6 -27 -15 -50 -18 -34 -5 -42 -3 -42 10 0 9 11 21 25 26 14 5
25 16 25 25 0 16 9 19 34 9z m-930 -239 c3 -9 0 -15 -9 -15 -16 0 -27 14 -18
24 10 10 21 7 27 -9z"/>
<path d="M3605 2532 c6 -6 24 -14 40 -18 21 -4 27 -3 20 4 -5 6 -23 14 -40 18
-21 4 -27 3 -20 -4z"/>
<path d="M3747 2448 c18 -18 36 -28 40 -24 9 9 -42 56 -60 56 -6 0 3 -14 20
-32z"/>
<path d="M2120 120 c-12 -8 -10 -10 8 -10 13 0 20 4 17 10 -7 12 -6 12 -25 0z"/>
</g>
</svg>
